<mxfile host="Electron" modified="2024-01-21T22:05:00.321Z" agent="Mozilla/5.0 (Windows NT 10.0; Win64; x64) AppleWebKit/537.36 (KHTML, like Gecko) draw.io/22.1.18 Chrome/120.0.6099.199 Electron/28.1.2 Safari/537.36" etag="x9cJn6hkmWCirzQNRIDw" version="22.1.18" type="device">
  <diagram name="PÃ¡gina-1" id="6Jy_sZt8btwu6cpRLHTU">
    <mxGraphModel dx="989" dy="589" grid="0" gridSize="10" guides="1" tooltips="1" connect="1" arrows="1" fold="1" page="1" pageScale="1" pageWidth="1169" pageHeight="827" math="0" shadow="0">
      <root>
        <mxCell id="0" />
        <mxCell id="1" parent="0" />
        <mxCell id="hPL-5RzWcmjOVMzAVouO-3" value="" style="shape=image;verticalLabelPosition=bottom;labelBackgroundColor=default;verticalAlign=top;aspect=fixed;imageAspect=0;image=data:image/png,iVBORw0KGgoAAAANSUhEUgAAAisAAAMDCAYAAABjJlXHAAAAAXNSR0IArs4c6QAAAARnQU1BAACxjwv8YQUAAAAJcEhZcwAADsMAAA7DAcdvqGQAAABhaVRYdFNuaXBNZXRhZGF0YQAAAAAAeyJjbGlwUG9pbnRzIjpbeyJ4IjowLCJ5IjowfSx7IngiOjU1NSwieSI6MH0seyJ4Ijo1NTUsInkiOjc3MX0seyJ4IjowLCJ5Ijo3NzF9XX3quNXsAAB3E0lEQVR4Xu3dCaAcVZno8RM2MbkXlYSsBBKykp0kBAgJCUEEJCC4ogKK6KgzLjMuM24DwxuXcdSnzuioT3EcFZFtQHZQEkiQJWSF7HtCcnMTwpZ7E/bk1ak+la6ue7q7qvtU1amq/+/w0V93+nZXV1V3fX3qVHW3Aw4BAABgqUPUJQAAgJUoVgAAgNUoVgAAgNUoVgAAgNUoVgAAgNUoVgAAgNUoVgAAgNUoVgAAgNUoVgAAgNUoVgAAgNUoVgAAgNUoVgAAgNUoVgAAgNUoVgAAgNUoVgAAgNUoVgAAgNUoVgAAgNUoVgAAgNW6HXCoPJRu13RTGQAAQMmBqyOVE5HQswIAAKxGsQIAAKxGsQIAAKxGsQIAAKxGsQIAAKxGsQIAAKxGsQIAAKxm/Dwrn5j0CZUBAIC8+OWiX6pMj/OsAACAwqJYAQAAVjNfrMheIIIgCIIg8hUpomcFAABYjWIFAABYzfjRQB+f+HGVAQCAvPjV4l+pTI+jgQAAQGFRrAAAAKtRrAAAAKtRrAAAAKtRrAAAAKtxNBAS98sLav++BOL1iTv4/S4A0aV5NBDFChInixU2mLXFNY+Y9wAaxaHLACrIgoIeKAAooVgBLEXBAgAlFCuAxShYAIBiBbAeBQuAojNerByg0eo01pPo7eN3fNwtWPy3NdKY9zQardGWJnpWgIyQBcuvLqg9Gh8A8ohiJeCiHvd0CcAWFCxANrAtMcv4eVaunHilyuxmYsW5be95KkMUcmMrN7poXKPzkHkPmFWkbcm1i69VmR7nWTHEdIVr+vGAsOhhAdJj+rPf9OPlkfliRRZWlkUSK8HB59A8PxEISXc7ESk+frsqWDT/VjUk3e0EQdSNwm9LUpTrnpWLWpyF7kQUs2dt7xJRNPKcQKPcguVCeliAOLEtSZ/5MSsnpT9mJewCjrry+N05Z4DKarutk3EtQXLjKjeyMCfsPGXeA+GxLal07ZL0xqwYL1Y+dtLHVJaOi1vuVZleMytVNfVWtls7z1UZpGsvvFZceXs2BmJnSZj5yrwHwmFb0tWvl/xaZXoMsA0pjZVLko9b67HrTRdggixCZDECoDlsS+yTm2Kl1kKstwKYwkqGtFGwAM1hW2KnXBQr9VauJLGSIW0ULEBj2JbYK/PFSrWFJhd00iuXp9ZzU7AgCRQsQDRsS+yW6WKl1splA1aydMn5HAxbJDFtFCxAONXef2xL7JHZYsX2lcvDSpYsOV+90Kn373Gq99z1/r0RFCxAbdXeb2xL7JLJYiUrK5eHgiV+cl5GnZ+N/E0j0p42ChZAr9p7jG2JfXIxwFaydeXy2D59WdbsGzXON7ot00bBAoTDtsROxouVAzG3vFWQ8vX4X18RmuS/3mwzwf94JpsJ/sdrpn3s9tIJG/230WhFbWxLorc05aJnJSuVJr0r5r275T6VNcfU4/jZPG0AumJbYq9MFSu6D+2sLTTd9LIxAoDksC3JntyMWQEAAPmUmWIlD5Wwh94VM0zPM5OPZ/O0AUWmey+xLbFfZntWsrpyebI+/QCQB2xLssF8sSIHDMcRRaB73XkMSXd71IiD7nkaiTjonidqSLrbCaIoUQS6120iUpSJnpV3txajC7worxMA0sC2JLsyuRsoL91e7AoCgPSwLcmOzI5ZAQAAxUCxAgAArGa8WPGfmtdUKxL/685rM/U6w4rSRep//GZaWElPm6nHodGy2IrE/7pNtTTRs4JckkWAF/7rNrB52gDARtYXK+9pvV9lJXn7UA++nuDrhVk2rz8ULEB82JZkGz0rAADAahQryJ1635jS/EZl87QBgK0oVpA7d84ZoDK9ev8eJ5unDQBsRbECAACsZn2xckvHO1RWkrdvnsHXE3y9MMvm9YdeFSA+bEuyjZ4V5JJ843rhv24Dm6cNAGxkvFjxn0DGVCsS/+vOazP1OsOKUgj4H7+ZFlbS02bqcWi0LLYi8b9uUy1N9KwAAACrUawAAACrZbJYycv+fcYpAEB62JZkRyaKlZs7zlZZvhXldQJAGtiWZBe7gQAAgNXMFytywHAcEZD1bi/t9Otedx5D0t0eNeKge55GIg6654kaku52gihKBLAtiRApykzPys17unZrZXUl00237vWhNtPzzOTj2TxtQJHp3ktsS+zHbiAAAGA148WK/wQypttNe96unqUsaxWxbnrl6/K/zrw3yX+9mWaS/3FNNJP8j9tMM/lYNFpWG9uSxlqactGzkpWVLGtvhizQfeg0wtTj+Nk8bQC6Yltir8wVK3n74GZDBADJY1uSLbkZs2J7pUmvSnyafZPG+Sa3edoAdMW2xE6ZLFaqfYDbuhCrTRcbInPkvIw6Pxv5m0bYPG1AkVV7j7EtsU9me1ayspJRqCRLzlcvdOr9e5zqPXe9fwdgXrX3G9sSu2R6N5DtKxmFSrrkfA6GLWyeNqBoqr3/2JbYI/NjVmqtZGmtaLWem40SANiHbYndcjHAttZCS3olq/V8FCoAYC+2JfbKRbEi1VvJkljRWLkAINvYltgpN8WKVG8hxrWS1VuBKVQAIDvYltin2wGHykPpdk03leldNv4ylaXn/Uc9oLLaZs/arrLowq6sN+45S2Xw/Pai34rLb7tcXUOSmPdAeGxLKv1u2e9Upnfg6vhOyZ/LYsUTdkXz0610jVTRFCnVscFMD/MeiI5tSQnFSswaWdEaRZFSHxvM9DDvgcYVfVuSZrGSqzEr1ciFHveCT+I5AADpYVuSnkIUKx5vJTC1Iph+PACA/Ux/9pt+vDwqxG6gKHTdfKxAZrErIj3MeyAZedyW5GvMyrhsFyuI328vdjaYt7LBTAPzHkCjfvckY1YAAAC0KFYAAIDVjBcrB2i0Oo31JL3GvKfRaI22NNGzAgAArEaxAgAArEaxAgAArEaxAgAArGb8PCuXjrtUZYDe7y6ufaw+4nXZrZwLCUB0v3/y9yrTy9RJ4ShWAADInzSLFXYDAQAAqxnvWfnwuA+rDAAA5MV1T16nMj16VgAAQGFRrAAAAKtRrAAAAKtRrAAAAKtRrAAAAKuZL1bkYGCCIAiCIPIVKaJnBQAAWI1iBQAAWI1iBQAAWI1iBQAAWI1iBQAAWM34bwN9aOyHVAYAAPLiD0/9QWV6/DYQAAAoLIoVAABgNYoVAABgNYoVAABgNYoVAABgNYoVAABgNYoVAABgNePnWfng2A+qDAAA5MX1T12vMj3OswIAAAqLYgUAAFiNYgUAAFiNYgUAAFiNAbYZ84d31/4hKeh96H/5gU3pQ0d0nQ9vvPGGe+l9FNS6DHOfapdLly5180MOKX1H6tat9FkS9brUzGP07t1bHHHEEWLnzp2hprvaZZj7ePPWb83YNSoDsiXNAbbmi5UxFCtx+sN7/iA+dIv5DW9cj2uDPL+2qD70pvSKlRtvvFEMHz68qULD0+hj9OnTx718/vnn3csw013tMsx9tMXKGIoVZNP1yzkaCCliYw4AsBnFSsFRqAAAbGe8WDlAi7WZnMeyUPngLR/03ZLPZnKeZb0hWXJXUJeg0TLa0kTPSkFd/57r3UIF2LBhgxsbN250Y9OmTW5s3rzZjS1btrixdetW8fTTT7uxbds2N7Zv3+5GW1ubGzt27HCjvb3dDTmIVcauXbvUs9lBjiWRsX//fje8QsIjx7rIkGNdZBx66KFuHHbYYW4cfvjh7iBdGW9605vcOPLII91485vf7Eb37t3VowFoFsVKAVGoIC1r165VWfKOPvpo93L37t3uJYDsoFgpGAqVYqvYHRHoTQAAW1GsFAiFCtI0c+ZM91LuckoavSpAtlGsFASFCqrR9bbEFZ4kC5a3vOUtKkv2tVYLANFRrBQAhQpsMWPGDJUl74UXXlAZgKyhWMk5ChXYZurUqe6lPLoobl6vCoUKkG0UKzlGoQLbxVmw9OjRQ2UAss74bwNdMuYSlSEOYQsQCpWyosyLrwz9isqq0xUHaR1OvHDhQvdSnrNEOvbYY93Ler/zI9W6jzzniTz/iSQfe+/evW6ehj179qis7LjjjlOZ3l/e+heVAXb54/I/qkyP3wZCJBQqxROmULHN5MmT3fDIk8c1SxYqnldffTXVQgWAOcaLlQO0WFu9eSwLlUtuucR3C63ePMtDy7Lx48errFSwNHJ4sXeGWY8sVGzgPwrIi3re/sLbfUuWRrOnpYmelRz543v+6BYqQNbIgmXUqFHqWul8KC+++KIbnZ2dbnhefvll8frrr7sBoBgoVnKCQgV5IAuWYcOGqWuVZJEiQ0eOTfHGvgDIH4qVHKBQQViN7JZIgyxYjj/+eDf69+/vhueYY45xD0mWIX8skB8MBPLP+NFAHxjzAZUhDsHCJO5C5dK3zVeZeb9/frrK4pXlYi7s/B/Y826V1SZ/PTlo3bp1Kmvcl770JZUJ8f3vf19lkLuxgmQBVk+fwVepLJyk3ksothuW36AyvTiPBqJYyRj/hjeujXCcBUo1cX7YZq1YaWT+p1Gs+AuUaopeuOhORjdo0CCVVRe1WPGjcEFc0ixWzO8GktNKxBeSc+lugG92NsDBf28i5EYyjUJFOvjcmulqOiTd7ZZFmvM/qjCFihT2fjAn1vcSUexIEWNWMuiP71WFikGXHm3HRtKW6Uhamq9bdq5GiagFiLy/7nGKEGkq6nsJ+USxkkGmCxUgrC9/+csqi6bRvwMAyXix4nyfoMXY4pjHtn0Dk9Pjn75mm+S/blvjGzDiYvq9RCt2SxM9KzBm9qztKgPQDN5LQCWKFTRFfqh64b+OZCQ5v5vdlVPEXUHNjGPhvQSUUawU3GVHP6wys5r9kI1rumxTlNeJxvFeAihWgEJp5ps+AKSFYgUNq/eNjy7seCU9f7/3ve+prDHN/n2R8V5C0VGsoGF3zhmgMr16/47mMH+Lg2WNoqNYAYCYsNsNMMN4seK8HWkxNtPz+LfPne4+pmnNfhOU0+Wfzmaa5L9uU4tr/sel0V057AJqnE3vJVqxW5roWUFT5AepF/7rSEYa8ztq4UGh0hjeS0AZxQqM4YO1OMIWIBQqjeG9BFSiWIF1uyKytmukWVl9vbIQ8cKv2u1IXtHeS8gvihUATaNAARAnihW4bPkGVtRvgmm+bt0RK0R8kRR6VZAn5osV+V4k4gtJd7uB+O2zp7uRhoPPrZmupkPS3W5ZpDn/kR+xvpeIYkeK6FlBF96HXdwbzqSeJ2vinC9pftNHfOJcZwAbdHM+rCJ9WnW7ppvK9N436n0qQxxufN+N4v03vV9dQxhFmGdfH/51ldW2adMmlZWtW7dOZTDt+eefV1nZkCFDVFbdfUfdpzLAHjetvEllegeuju/LDz0rAADAahQrABAT/+42LwBER7ECABZhFxDQlfFixfnuQIuxMY+jtyLMs2+u/ab7OpF9/uVKo9nU0mR8gO17R71XZYjDTe+7SbzvJgYxR8E8K/vw4R9WWRkDbOPz3HPPqaxs/cT1KgOy5eaVN6tMjwG2AACgsChWAACA1ShWACAm/qOAvAAQHcUKAACwGsUKUCC6b/pEfAHADIoVAABgNeOHLr9n1HtUhjjc/L6bxXtv4vDwKIoyz/55+D+rrLqNGzeqrIxDl+OjO3R52LBhKtO756h7VAbY5ZaVt6hMj0OXAdQUplBB8vy7hLwAEB3FCgBY5Lw956kMgIdiBQAAWI1iBQAAWI0BthmT9GDRj/Z8VGXm/ebZ01QWrywPsA07/wf2vFtltTHANlnPPvusysqGDx+usur6DL5KZeEk9V5CsaU5wNZ8sXIixUqcbn6/s+G9Md4N70d7xVegVPOb3fF92CYxz0xqZP5TrNgpqWLFL873ks3k+xzRRflsvGUVxQpCinPDm0aREhTHB21WipVm5j/Fip12796tsrIRI0aorLpmihVP0YqWuN7nWfuyE0XU15ZmscKYFbhsKFQkW6YjaUV93YgP61Tz8lyoZI3xYuUALdYW1zy2iX+6TLQ4HtN0S4rsSA0G8kuuW0Vppl+vLFTec+N7fLfkr0WdZ2miZwXiil6PqcwOtk1P3Ir2epEc1q3G3PL+W9xCBfagWIExs2dtVxkAqdGeLN5L6aFQsRPFCpoiP1S98F9HMpjf+cWyTR6Fir0oVgourm7iZj9ki9J9TTc96uG9lAwKFbtRrAAFp9tVQZgJZAOFiv0oVtCwet/46MKOF/O3OFjW8aFQyQaKFTTszjkDVKZX79/RHOZvcbCs40Ghkh0UKwCAwqFQyRbjxcoBWqzN9Dz+9e5T3Mc0rdlvgnK6/NPZTJP8121qcc1/2MHEOBab3ks2N8l/vVaThcq7b3y375ZitijzTLY00bOCpsgPUi/815EM5nd+sWzj8b/v/1+3UEG2UKzAGD5Y7Wfimz7ix3spHhQq2ZXpYuV/33xFRaAxtu2KKNquEXYFIS6sW2UUKtmWiWIlWJR4EaS7jwwASAM9WXagUMk+K4uVmw/9cEXsf/XVpiL4eOjKlm9gRf0myDdgmMY6VUKhkg9WFStJFRMULXrywy2tD7g0n9sWzAOYwHpURqGSH90OROyX7HZNN5XpXXzixSoL76b971dZeIf26KGySm/s3auy8N53yI0qs1/Sb76P9XpcZeYl9YGa5Q+ssPN/YM+7VVbb+vXrVVamuw1m7Nq1S2Vlo0aNUll1fQZfpbJwKE66vs/jfN/n4XNRijqPbl11q8r0Dlwd325O88XKyPDFyk0HwhUp1QqTsMIWMO/rZn/R8r8fcFauG7K54U1LEebZ1SOvVlltFCvJarRYuavlLpUhLP/7PI73/MeOia9AqebXz8RbuESdT7euTq9YSW030A2vXKQdX+LFIYcffjAOONebCf9j6Z7LCzlNAIDsMl2oyCIljUJFSvO5bZNKsVKrKDisRw834lLv8SlYACCb4ihUbEDBEkOxcqBO+2Pn+eLAa69p49DDDhMHXnklVHQ77bQuobtftXCfSzMNMuQ0utNpYQszj2mVrQjzrBlyTzCRXNRzZ8udviVLC9uki2+42HdL880m/uky1aI+bpqsOBrosDe/2Y1aDpk5syJ0gvepdj9Pvee9oXO2ygC7/cvqf1EZABOuPGaByuxg2/QkzfgA24tG1t6Ncv1z71BZyeE1ioVDp01TmRlvPPywyrp67aWXVNbVB4++X2Xpu/UDt7rfHhAe86zsw5pD9hlgGx/dANtNp2xSGUwy/T43VRzMnrXd2M8nXPvMFJWZEXWe3bb6NpXp5XKArSxSqhUqskgJXai8+GIpQqj1uLWmJ1hgAQBQjSxQvPBfR+MSL1b2v/aaOOzQQ7VH7cg4dNIkIWQvhy68wsQfHt2/6R7DCfkcuueWIadNTmMwrtt5pnoiAAjHP1bFC9gvrl0uzRYsRd4VlHixcsSRR6qs0mGnneZGFx0d5XjllWjh/9uAqs/nqDaNAAAgecnvBtIUFYeNHy/Evn1dQ1NkNEw+luY53OfWTNMR3bp16XX5/dOnqwcDAKCrer0n7A5qTKLFSrAL67ApU9zoQp5xVsbLL5sN73EDqk6HBgULAKCaeoNpTQ22LZpEihVZpHiFir+nQjeeRFdMGCefQ/Pc/mmTIXtXdIq83xAAgKQZP3T5XSPfpbKSjx/zhMpKzlnyBffycDmQ1k8WDGkIHAH02qJFKit7We4aCnjo1J+KXz1zsrqWnNs+cJu46AbOshtFUebZNSOvUVl169atU1kZhy7HZ+fOnSorGzNmjMr07mi5Q2WIwvT7PLjtiqLarp5me1VMb3OizrM/rf6TyvRyd+jy4See2HX8SFoC0+FOG5AxYQoVAMmQRYkX/utoXKzFiq4ylae670LuEvINbk005HMHBE/N/yZ522uVp+Q/Y/7fNFV5A8g//yHLXtRzQecFKkMeUKSYkXjPyhETJqhM0RQLiQtMQ5dpdBx5+OEqAwDkXRq7+WuxbXqSlmixMvv5/+gyqFXb25FGBKbriBEjugy43R+IaQ98VL0yIBt03/SJ+AKAGbEVK6F2kbz+ukosEGJa3qzpXWFXEADkky29GUXvVZFiOxoouBGfvf3fVKYccYRKLPNq5S6hl1etUlnJvkBR88i51yW6IiV9ZEucxVhS8y3LRwOFnf8De96tstrWrl2rsjKOBopPe3u7ysrGjRunsur6DL5KZeGwMYv/fZ7GF9O4lytHA4WhO2mbDRHR1Hu7/opt1sk3pRdxSup5sob5gqhYZ+InCwcv4pTU82SN8Z6VC0dc6F5+ovdC91Kavf5qlfm8SR5jYyE5fiXgpTVrVFay7403VFbysVOT+8n3P13yJ/GuP1aey8YU/zJLyy93TVaZOXHOM5Oamf/0rNgpqZ4VnTjeSzbLyvvcJlHn2e1rbleZXj57VoIDXG2JgrKhUJFsmY6kFfV1Iz6sU8iTZIqVwInXrBeY3i5HBb32WkUAAID4pNOzouvRsCkKxrZvYEX7Rsg3YMSFdQt5kUyxEjiHifUC0xvsWQkGSvjpc8AM3ktApdiLldmPf0ZlPrqjcGyKgB6DBqmspMchlbPtlw/0VlnxyA9VL/zXkQzmt93k8QvBCItlC5TF37MSGP8hDjtM/YPF5DQGpjv4e0F5GbcSVzdxsx+yRem+ppse9fBeAtIYsyLHhGQhgBxq5ps+AKQl+Z6VrAhMd3CcSvB3goqo3jc+urDjxfwtDpY1ii75npXnn9f3ZNSLz3++HLp/NxlyGlFXvZ8+56fR48X8tZ+pniyWNYou9mLlzvP/2OXomkj+8R9L4ae7zaTA9HZs2VL6zSAVe5zw97J8+sK96g8BAIBpyfesSLrejGB87nOl0B2t44V3H93fNxMFEtcpuZv9JliUU4Xb8Dp13/4JM2EC7yUghmLFeYu6rUJg/If1AtNb70gg7zUn0ST/dROtGfKD1Av/9Wb5p6/ZZvrxTLdmmJrfsI+N7yWbW5Feq6kWdZ6lKZ2eFV0viT8++1n97dUi6v3rBRrCRhMwg/cSUCmZYiUwBkTs3Kn+wUJy2gLT6x+foous+3+7JqnMDrZNT9yK9nqRHNYt5EUixcqdn3xYZT5ybEi10PV21Avd4zQSAS++8ILKSl4MnL0WAADEK7ktb2AcSFVf+pJKImr074IC0xnsRQmOV3nyy0+qP8w2W76BFfWbIN+A8ymuQbdhsE4hT7o5b55I755u13RTmd4Fwy9wL/+mzyL30m/2DyeqTOnZUyU+X/+6ShrwrW+ppEHPPquSkhc6O1VW9sKhh6qsZPnXVon/tzO5D4XbP3i7uPD6C9W1eOiWXdzinIdJzDOTGpn/A3verbLa1qxZo7Ky9evXqwymtbW1qazspJNOUll1fQZfpbLokvw8skmS7/M4PyNt3p7csfYOlekduDq+YjzZfRqBsSBi2zb1Dz6y4NDt5qkXzRYqcloC0xc8Cuj5N97o0tOSR/LN4kWcknqerIlzvvi/4XuB7ItznUGJLFC8iFNSz5M1ifasSLO/faLKlGOPVYnPF7+okgh+8AOVNChQOD2v2VX1QuBHGFf8ywb3MskPiKz1EtigCPPsX0f9q8pqW716tcrKNmworccwr9GelT91/5PKEFZc73Mbioa4tjGF7llxvqu57Rc7A7t8lOcCA1bdIkHXU5JkBAoVOY3BHpTnnJouOF5Fkq/Te81JNMl/nVa/FWGewU7+HiwvwpDLlBatxTHfbOndkNPhny5TTfJfr9fSlM6hLYFBrGLrVvUPStRekmZ6VeRzB6cn4PnDD1dZ2apvBaYZAAy4rfttKgPgSaVYeU431kMeNuwPXQ9ItQj+bZQI0E1b8BeWi/ory7DXN1Z+Q2UATPhkn8Uqs4Nt05M042NWZg+frbKS4Aw+7fNHq0yInoExIK5Bg1SifOELKtH4v/9XJQ3YvFklZc++/rrKyp474giVla35Xrt7WW1XV5zu+OAd4oLrS+OCEA7zrOzSQy5VWRljVuKzfft2lZVtnUavbBxMv89NFQezZ203dkZi09ucqPPszrV3qkwvP0cDhSGLCH/Px3e+Uwp/T4p3m/9+UUJTqOjoChUAAGqRBYoX/utoXOzFSrAS9A9a3b1vnxtdxozIb3rBb3s//GE5GuU9buD5vOnwT1u18HpVWPGQF/7Bn4TZQDbFtcul2e1GkXcFJdKzIguWWt1Xu9VlF7Kw0PWMNBLB4kep9ty6XpW1P36u7msBAABmJbobSG7kd3frpu2xeEZF8MRsYt26ckTl/9vA43rPp5sWOY3Bw5RlUKQAiILeluKp13tCr3xjUhmz8uyb3qSyrp4JnM6+gr/48MIbx6L7typqPUe1afvy1cNUBgCAXr3BtKYG2xaN8WLF+e5Qu/l6L2Todtk88/rrbgTHlmhD/taJDN2/BeLg42qe05sefw+LF1+6eqj/Fbgt1GuNoaX1vFluzDNf45t+6py5TouhmZy3NvNPZ7Mt6uOlKZWeFb/dRx6psq6eOeKIg9GoMI9Raxq+/K1RKgMAFMHPd9b/SYRGNNurEtd0ZYHx86ycP/x8lel99x+XqayrY+R4kpB6a+67681vVlk4z9S5/z/9+3iVdXXnB+8Us6+vPKdMEtJ63iwryjz71qj6P+a5atUqlZVxnpX4bNP8WOvkyZNVpndr91tVhihMv88/1WeJypojx6iY2vVjuliJOs/uWnuXyvRydZ6VWgVAveLBTxYmwYii1nPJaaw1nYBtwhQqAJLHGBUzUtkNJAsB3SnsZew89FA3dGNHTIT3+LrnlkGRAiBNF++7WGVIk227XIq8C0hKbczKV390ssr0Gu0x0Qn7WPWmCQAAJC/VAbayOJBx4LXXasbOww7rEgdeeUUb2vtqHtMf3nQAAOCxpTej6L0qUuIDbGv59t89orJkfO2nU1VWIgcbxcnE4K+kB4uaGmSmk9QbMMsDbMPO/4E971ZZbQywTVYjA2ylPoOvUlk4bMzif5/H+VlYTdzLNUsDbK0qVjzf/MSDKovHN345U2WNS2sDmMTz5u1NmbVipZH5T7Fip6SKFb+iFi5Jvs/z8CVOKnaxMqz5YiXom3/TXPHyjf/XfHESdOeHnIX8hxSKlRif91N9ky9Sgn7ebv6NmtayiqqZ+U+xYqenn35aZWUnn1x/l3MzxYonjveSzbLyPrdJ1Hl217oCHbrcCFls6CI49kR3Hxmoz4ZCRbJlOpJW1NeN+LBOIU+MFyv+U/PG3b7x32+vCP+/xd2Sfq1ei+t5beKfLhMtjsc03ZIiO1LtiF5i5LSJYuRxvUR37b/nI9LmTEVhWtFer4kWdZ6lKRM9K4jXp/suVZkdbJueuBXt9ZZ1F72OGykmTp8uJk06URx/TA91O0wp7rqFvKFYgTH89Dka1b17L3HcyIli+vRJYtKJx4geOalbGu1t4b0EVKJYQVPkh6oX/utIRv7md3fRvddIMXHidDG94L0tvJeAMoqVgourm7jZD9midF8Xt5v+GbF19W6xb5+6qnOwt2W6mHTi8aKodQvvJYBiBUBK9j6zSixaNF/MX7xYrN7qFC7qdp3uvY4TI93elkniRKdqYXQLUCwUK2hYvW98dGHHKzfzd+9e8cwWp3CZP18sXrxabN1do2zp3l30Gjnx4KDcY/IyuKUO3ksoOooVNKzeT5/z0+jxyuP83bv3GbFl1SIxXxYuq7eK2nVLLzFyYmlQ7onHH5Pr3hbeSyg6ihUAVtr7zBaxatFqsVtdr45DoIG8M16syBPHFKG98w/v9F1Lrpmex//VPt59TNOa/SYop8s/nc00yX/dphbX/M+vfWL37n1Vx7fYdgh0o4cu+9n0XrK5Sf7rtPot6jxLEz0raIr8IPXCfx3JKN78doqVVYtK41vc3URVy5bMHwLNewkoo1iBMXyw2s/EN31blHYTyfEtdY4myuAh0LyXgEoUK7BuV0TRdo2wK6hZ4Y8mKh0CfaI4Rl3PO9Yt5AXFClBwut4WmyJIdx8vOjt3ic0rF4p58+aJeYtWiVVbd2uPKNL9bVIBIDqKFbhs+QZW1G+CfAM2r0f3HuKYXt2F818hsU4hT7o5lX6kUr/bNd1UpnfesPNUhjjc/aG73SOR4vS3fZepLDlxfrAmMc9MamT+D+x5t8pqW7FihcrKNmzYoDIbHSNGnXGi6KWuCbFbrJq3UjyjrnXR4xgx6PjjxXE1K5Q6j2HQ1q1bVVZ26qmnqqy6PoOvUll0RS1Sknyfx/kZmeTyizrP7ll3j8r0DlwdX88hPSvoQr5ZvIhTUs+TNcyXqHqIYwaNEpMnnyHOmHRijUJln9i9dZVYlFChkiTWmfjJAsWLOCX1PFlDz0rGZK2XwAZFmGffGf0dldWWp56VHscMEscf30v06l57P8++fbvFllVbxDN796pbktNoz8otb75FZQgrrve5DUVDXEVooXtWZO1DxBfM4+hRhHlWHN3FMaMmi8lnnCEmnXhcjUJln9i3W/aizBMLFzrFTQqFSjN0y5ioHXHMN1t6N+R06Kav2ZB0t1eLNLEbCECGdBe9enV3/l/Fvt1i66pFYt68hWLhymdEtkoUANVQrACwkxwsO+p43y6g6txelEXzxLyFK8XmZ+wpURr5dnrzkTerDGn6u35PqswOtk1P0ihWgBz4yvKvqCzr1GDZM+oNlnXsU6fel7t6ZC8K3Siw0OxZ21WGZhgfYHvu0HNVhjjc8+F7xHnXMYg5CuZZ2aVOC9q4caPK0hN2sKy0b/dWsWXLZmFRB0pVW7ZsUVnZ9jPZeMXB9Pu8mZ6MagVKsz+j8NMd41RmRtR5du/6e1Wmx6HLAPKnR4+Qg2Ul77Bj2YuSjUIF2RXXLpdme1mKvCuIYgVACo4RoyZNEifWGizrkIcdyx8rlANmV27O3oBZ/1gVLwBER7ECwDLqsONF2TzsGMVWr/eEMSyNoVgBYIfgYcfUKMigeuNSmh23UlQUKwBSJQfMrrLwsGMA9qBYAQpON64i/tgrnlm1UCx86CHxxIpNYlen7j7ZD2ST6aNuPLYdDZQlxg9dPmfoOSpDHO798L3i3Os4PDyKosyz7475rsqqW758ucrK7P5toGzTHbo8depUlenddORNKkMUpt/nn+n3lMqaI8eomNr185MdY1VmRtR5dt/6+1Smx6HLCZMrqRdAFoQpVIqrtxg1Y4aYcTBGObckw9/L4gWKhTEqZhS+WPEXJroCpd6/A4BJ73v5fSpDmkz3YjTLtulJWqGLlUYLDwoWAACSU9hipdmCg4IFWcRuCSA8W3ozit6rIhWuWJFFhqlCw+RjAQDsIwuFtIqFNJ/bNuaPBhpi79FAn+kfX2Hxk7ZkVqh7L639Q1LQO/f32TwaKOw6O7Dn3Sqr7amnuj6eDT9kGC85wPZEcYy6JsQzYtVDK8UudS1OmzZtUlnZtGnTVFZdn8FXqSycpD5/bCY/G5N6n+dhWyJFnWf3bUjvaCCKFUP4sIApjaynFCu15L9Y8SvqZ1GSxUpeZKlYKcxuoDgLFSnux0f+yXWI9QjNYj1CHhkvVg5Y2JJ648rn8T8vjRa2sXGBaUX7PJL812n1W9R5lqbc96x8tn/XM3bGKennAwAg74yPWXnHkHeozA5pFA//2TZGZUB9JtbR7I1Z6S1GnXy86KGuxau76N5dpa58j1kJKsrn0X2X3ifO+T0/9xJF1Hl2/4b7VabHmJUUyN9zAIpAfl9JI2QF0T2RUC/URzc9SUUYfP4AlShWfOQHhAz5LXXZsmXuJR8asJm3ziJ/WLZAGcVKgCxS/OR1PjAQF8Y4oZ5mP39Yx5AHuR6zEvVNKj8UgsWKNH78+Mi/nMm4FYTR7IbE25Dp1ludJ598UmVlRTjPyuiZoyrOs7LywRWpjVmZPn26yqq78sorVVbS7C/3FuHziDEr0TFmJYOqFSoeeldgG9bJ4mBZo+iMFysHLGpR1PvmEvWbjX86aLRqrRnNfttG/PwDa71oRLPLWq5reW9FeZ0mW9R5lqZc96z8R9tolSUrrecFACCP2A0UAt9gERcKW9TT7OcP6xjygGIFyDC5IaOYzieWLVBGsQIAlqFIASpRrAApo5secWHdQl7kvlhJ+s3KhwMAj6mjgYCiK0TPSlIFBIUKGsW6A9NYp5Anxs9ge/aQs1Vmn8/1X6EyvWq/XPv0s+9UWXV8MMCUeuupTthfXS7mGWwdLS2iRaVCdIrOTpXGbMOGDSormzFjhsqqa+ZXl4v6WXT/pfeLd/w+mTOoN/IeDSvJ5Rd1nv15w59VppetM9jKabU14qR7PoJoIP5j++iDYZp/d4QXheBUJ50HQ92WIxXrTGB9KkxIutsNhSxQvIhTxfNopsNoSLrbq0WKzPesnGBvz4r0uQHVV7RGe1bi2KgAUXxv3PdUVpvuJyV0v18DMxrtWbnhiBtUhrDuv+x+8Y7fme9ZqbXNSEpc25io8+zPG/PUs2K5g98+DDD5WEBa/L0sRPyB7LChUJFsmY40Ge9ZefsJb1eZ/T4/YKXKSqL0rPx4+yiVAen7/rjvq6w2Xc9KOmNWeojBoweJ7upasvaJzSs2ib3qWpx0PSszZ85Umd4fj/ijyhDFny/7szj7d2Z79oPbiDTFsc2JOs/+svEvKtOjZyUmjS58ChXY5ktPfkllWdFDdO/dW/ROJbo7zw7UZlOhItk2PUkrdM9KULVvp9nbEAB6lx24TGVl6fSs9Bajzxzt/D8Nu8SKuSuc/8dP17PS/o52lcEk0z0rpoqD2bO2GzsjsekvyvSsAABQULJA8cJ/HY2jZ8WHnhXknT09K44ePWLfHdOj9yBxzDG9Re+KJ6JnJY9M9qw026tSqzBptpfFZO8KPSsAUM/evc5/psN53B69xaDRo8WUKVPE6EHBQiVZ8rtgMABER7ECION6OPXJYDHaKU7OPHOKmDJ6kFOgVK9Q9u56JpEjgVBM9Xb3sDuoMRQrADLIK1DODFGg7HUKlM1ixYIFYu7cuWLBil0UK4hNvd08pgbbFo3xYuVAhls1/vvQaJlumd4toStQ1D914RUoc50CZYFToGwSu9x9ROlz5jothmZy3trMP53NtqiPlyZ6VgBYrNkCRf0TEMGPtp+oMrOa7VWJa7qywPjRQGedcJbKsucH436gskpffPKLKgPsVW399Vu6dKnKyuz7bSBZoPQWgwbVKkw8skB5RmzebGdhsm7dOpWVzZo1S2V61x9xvcoQxV8u+4t4++/MHY369wNWqaw5coyKqV0/pouVqPPsgY0PqEyPo4EA1BSmULFbD9F7MD0oyB/GqJhBsQIUnH/8SrLRXRwzaNDBAmV0zZ6UvWLXpk1i+eNzxJw5j4vHl28UOzt1j2lXNOKDr35QZUiTbbtcirwLSKJYAZCC3mLMrFPEmMGD6xQoy8XjqkBZ7hQr9KAAxUSxAsAiwQJlV+lEb0AKbOnNKHqvilSYAbZ/uWyIe/nyyy+7ly+99FLFZfB2ybst7N/I6ze+ObsDjGGfsIP8Bva8W2W16QbYpvVDhmNmjenyQ4Z7d20Su3btEpty0oWyfv16lZXVG2Ar9Rl8lcrCYWNmfoBtkKkBt1HEvVwZYAugYfJD0YuikYcpDx5zirtBP+WUMWJw/cOBrOYfv+JFHIq8ziRFFg5exCmp58ka4z0rswbX/9aQhgcuH+pehu0lkbzbwv6NvH7DkXa+ftjvH45drbLostezovToLQbLcStOUVKrLNm7d5c7wDZrPS66Q5fPOqt+72vUnhWdH24bqbJieODyB8RZv6VnO4qo82zOpjkq06NnBci5ZgqVKPzf8L1IlVOEbFr+uHh8zhwx5/HlbjGiK0d6yKImRz0uSUhqnQKSQLECwA4ULgCqoFgBUsY3YI1g4SKPClL/5KcrXChdyli3kBeFGbPyPyd9xr3s6OiouOzs7HQvg7dL9e6ju/3lT411cyAsExuUsGNWlixZorIy+063X4MsTnr3Fr0H965dlMhiR56XpUrvTFLWrl2rsrK3v73+0RdXXnmlsTOfFmXsCmNWomPMCoBEyN8dkVEYbhGyXPW4qPOwqH+qoHpcTpk1S8zKaI9L4ZYtUAPFCpAiuumbsFedQK6BwiVLmi1YWMeQBxQrALIvUuEyuMvJ6ADYzXixcsDSlhT/c9KitzmXP1AR/n/LY2tGtncR9HDqht6idxzRo4caoFsamJuHk+E2u6z961xeW1Fep8kWdZ6lyfgA2zMHn6kyu/z2pM+6l2EGyXrq3Ud3+0ufGuPmqDT38toDs5p15m+zeTK+Lxy7RmWN8TZiy5Ytcy/rsWeArf50+8nYJZbPWe78P37NDLD1a3aw7f/dNkJl+TXH+YyZldHPgbREnWdzN81VmR4DbJFJcy/9y8EQ+/fHGhXPhUjk95U0Ik266UkqAERXmJ6VOZcPcy/Dnjpf8m4L+zfy+h+PtPP1J8W2YuHM38f3w2amNNO7YqJnJa0fMhx71tjUelaeeuCp1HpWzj77bJVV5+9ZoVclHHpWostSzwrFSpXCQ/JuC/s38nrRipW5H7pfZdlw5h/eoTJ7NLsrSAp7npXFixerrCyd3UA9xAljT0jpcOK9YuNTGxM5/0ozxYqp86xQrKAaihULUayYlbUiJcimoqWYxUoxNFqsmPghQw/FCqqhWLHQJS9f4l6GGSTrqXcf3e1n/k++i5W5H7hHZflw5g3nqSxdzRYsFCt2SrtYKUqhIlGsRJelYoUBtghFFil5K1SkvL4u2EF+FwwGgOgoVlDX3PfdpT0CJ0/hvsYUFekbMJLBOoU8oVhBVXIDnvZGPElpv165cWEDg2axHiGPGLPCmJUu5r7nDpUV25m3XKCy9IQdy8KYFTutWdN1+b3jHfUHd0cds0JxUhp/gegYYGsZipVwKFQq2VCwhPHD8T9UWW0cuiwld+hyo8XKdYdfpzLAHrkqVmYOmqkyu3zwlQ+6l2EKDk+9++hun/kbO19/GA+++3aVpee3t92mspLLL7pIZemZ+b8XqsxeP5rwI5XVZk+xUoyTwjVarPz+sN+rDLDHg5sfVJkexYoBcz8y3L0Me84Uybst7N/I69e/KXvFSpJFSrAYaVaSxYzNRQvFShTJFSurV69WWdk555yjsuooVmCjNIsVBtgW3IPvulWIN96INX73pz8djG7duhkN/2PrnttkuPMKiBmFCtAVPStVekkk77awfyOvZ6lnJa6N7+/uvFNl0U2dOlVlJY888ojKorts9myVmTXzTxerzC5helcWLVqksrJ0elb6iLFvH+v83xN2HElwrEuYvwv+zU7x1F+ecv4fP91uoHo9KxQrsBW7gRJAsVLpwQtuUZk51917r8qqmzJlisrMWLBggcqq+/C556rMnJl3vEdl2XLZG5eprMyOYiVsAdHI3zX6XM3TFSvPnP+MyoBsoVhJwNyEBtiuzcAAW9OFSr0ixXSBUk29wsV00ZLFgoViRaJYARrBmBUk5sHzb9KewbWR+MN997mhG0ty8sknHwxZDycR/ufUTZM3vbrX0ki48xKoQbeeAoiOYqVATG1c//DnP7uhM3nyZDfSVms6ak1/VBQsABA/48WK893BypYU/3Pa1B487wZt70DUuP4vf9H2WkyaNMkN3TfJNMObLt00y9eie41RQ85b59ky0ZA+//Kg0bLU0kTPSgE8dN6NKmvO9XO6ns564sSJbtiu2nTqXlMjTM1jAEBXFCtFoDlnSJS44cEH3TjkkEMOxoQJE9zYv39/psKbbv9r8V6f7rVHCgBALIwfDTRj0AyV2eXBj5R+6CvsYciSd1vYv5HX//Amu17/Q++4XmWNuWH+fJWVjRs3TmXZ9uSTT6qs7APTp6usMTPuLx11loYfT/ixyqqz9zwr+TwaSHcG23PrHJX2u8N+pzLALg9tfkhlehwNhIY89PbrtGMswsaNDz/cZZzH2LFjtWNDshjytQRfn3zNunkRNtx5noIwhQqSp1vvAERHsZJTzW40bwycOXbMmDFu5I3udQVfe1RpFSzIh8te73ouHKDoKFbySvOtP2zc9OijFb0No0eP1n5DzFPI1+h/zXIe6OZN6LCU7rUDgO0oVnLooVmN7/O+6fHHVVYyatQoleVf8LUG50UUzSwDAEAlBthWGSwrebeF/Rt5Pe0Btg/N/B+VRXdLYPDl8OGl31MqmrVr16qs5D2TJqksuhkPfkRljfnSwHUqq21gz7tVVtvChQtVVrZ582aVJakYA2xXrlypsrJ3vvOdKquuz+CrVBbO958epjIgPrkaYOvvXrYpkqJ77iSjURQqZcHXHpw3UeiWUb2QBYoXQBj+dUa3ThGEiUgTu4FyZN6M3+jHT4QI/3iNYcOGaVfUIoWcB/55optnYcJdJiF9+bj1bgDNYD1CHlGsQPzv0qUqQzVxz6M0Ny66Yi2JCNLdRxdBuvsEI0h3nzgiTRQsyBOKlZyYN+1a/VlV68Sty5ZV9CAMGTJE+6FbxJDzwj9v5LzSzcN64S4bGLJXbHzySfeEfqXY6NwCIO8oVgrs1uXLVVZywgknqAye4DwJzjMT+AYcRafo3LlT7DwYznX1L9XtFXsr/sa5rv4l71i3kBcUKzkwb+ovteMl6oX/93EGDRrk3KT/PZ2ih5w3/nnl3Bg53GUEnyR7SDrFhorn2hCiwEnX7FnbVQZAolgpqD9pfrME4dg07+RGLZsbtkZ6SLJHt3sxrOwuW8A84+dZOeP4M1Rml7vO+ZZ72dHRUXHZ2Vn6iAzeLtW7j+72be/u5eZJmXfqL1QWze3ryofFHnvssSpDLdu2bVOZEBcOa+y8Fmc89kmVlTTbTe9tzJbJ8TQh6M6zks4PGRaD7jwr559/vsqqu/LKK1VWcuecASprzPe2DlUZ0Lh5W+apTI8fMoRR/kIFjcnqPPR/w/cCAGxHsZJ1mvER9cJ/hMuAAQO0GzCia8h55Z93unlbNwxiF0FxsKxRdBQrGTZvys9UFt4dGzeqTIj+/furDGH555l/XobVyDKrptldA1nS0tJH9BkyRIwbNy4QQ8SQPn2cf1d3tIyu6G1EkZY1oGO8WHHejla2pPifM+6mO6dHvfAf1aI78oWoH/55qJvH9aJiGaKqlj5OcXLa2eLss88Wp53mFCYnnCD6OIVJZZwgTnCKltO8+znFSx9bK5cU+dc5Gq3RliZ6VgrkrqefVpkQvXv3Vhmi8s87/zxtxL9vHaIyeLwi5bRxTnESse5ocYqXcaedJs52ipshUf/YUs32qrCOIQ+MHw00/fjpKrPL3ed8270Mc0SPp959dLc//e6ebp6ES1+9VGXhDBw4UGVC9OqV7FFLebN7926VCfHOiLvTpi/5rMpK/vG4DSprXNhfXX7iiSdUVpbOry7rtIg+48aKcQaLjM6dT4qnntyZ2mHRK1asUFnZ7NmzVVadPBrI1K4fihWYMn/LfJXpxXk0UGGKlXkfPdG9fPnll93Ll156qeIyeLvk3Rb2b+T13x+RzOuPWqhIFCvmNFOsSP6ChWJFahFDTjtNnFCjTpFfDvbu7XrquB496oxZ6dwoHn00nRPBNVqs9Bl8lcqaR7ECU9IsVtgNlFH79u2LFMcdd5zwH8kia1Si8fDPS7Ffc9RPvfBJe2Oie31JR+9x+kKls3OnWPbII+L+++8XjziX8nwywXjkkftL/75sg9ipq0haThCnnXaC6KF53rgjbRQqyAuKlQI6+uijVYZG+efhPTt3qgwN6TNejO+j8oM6xYZljziFyDKnAAnXJ9K5c4NT2MiiRbPbp2WIGDckH2NYgCKiWMmgc9vO1fae1Ar/ESy6I1yI6OGfp84NkWL+2B+qpVlS3G/AfcT4LpVKqTdlg7abpL7OnbK3xSly1HVPy5BxIul6Jc3eFnpVkCcUK4Al5MalaBuYliFDnHLFr1NscHtT1NVGubuPguNUWsSQIV26cHKniOsR8o8BtlUGy0rebWH/Rl5PYoDt9HXRnmPmzJkqcz6uOQeFUd4RYdI73vpWlYUzfcUXVVZd2MG3YQfYLliwQGVl6Q2wdYqHqVMrejs6NzwiHtnQbKVS1jJkqpha0Z3iFDH3d+11iYtugO0FF1ygsuqiDrClOJGf8bV/twZ6Z/wm/O/55epooGnHTVNZ9vxk4k9UVukziz+jMjucsT7aj0VSrMSnmWJl2vIvqKx51dbdIKuKlZYhYurUIU7J4omjkOgjxr9jfEXvzc5l94tlCVUrjRYrvznkNypDWPOvmC+m/7f5L4txPa4Nor62h7c+rDI9jgZCU/xHrsjalDAX/nmrO1ttzSi4FnmafJW7drbH0OOxU7QHHrRHggW7bp1BduS5UMkaipUM0g2grRWAjYJFw85gVWFI8HG7FEmABoWKXShWCsB/1IruqBai8fDPW+eGaFFoLaKlh0pdnaKz6/nezNjrPLZKs4BdQOmjULEPxUoG6XpPagXyz7ZxVfX1CJx1dq8IeTqV6OSZb1Xqcp64ok4CfChU7MQAW5+sDLAd9dgolYVzySWXqEyIww47TGUw4fXXX1eZELMOP1xl4Uxb91WVJefy1y9XWVk6A2yDA19DDK51ioxyfdMZobhp4LkMWb58ucrKnrvoOZXBJBNFRtEKlaivlwG2CG3QnEHa3pNa4aFQMa+ZefrwsO+oDPU5BcfUqWLqwag8wgdoFj0qdqNYyTn5660cCRRvePN3ruxl0Y1NqRVQgruFDGK3D+qgULEfxUrG6HpOagVgpxjHqAT18O8+cgTHsMRIV9zCLhQq2WC8WHHejplt1fjvk3ZDvviXbRLNHsGjf1pEnz7xdK20VB52lPrRQf7lQTPXGpm3slCZ9t/TfLcUq0WdZ2miZyVj9u7dGyn8h9bqDr0lmg//PNae/K1WJEz3TT+t8J/9V2rp0UN7v1LID1U/eYPufsHo0aUIam9v19wvnoC9Hr7iYbdQQTZQrGRM5weifSf89re/rTJnYcuNKYzyz9MZEYuP0zf/s8qKqbN9Z2UPR98+oq9Kjek7JPBLy+3yRLkoOAqV7GHrlUG6sSm1whsAyiBb8+Gft2K/ZgBtrTDspxN/Wjes0ukUDpXVihgy1OCuoJah4vTxgfLHKZCSrFV068wV+6+oGYgXhUo2UawAOWBdIRJKp1M7BHYFDRlipHelpe94cfrp/h9JlNrFsmV0qxQZhUp2Fb5Y+crxmw5GNf771LpfUnS9J7XC/+1f902PaDz881bbe1IrIDrXbwj0dDTTu9KiipRz3B6V4KO0L1uWaK9Ko+hdiQeFSrYVulhptPCwoWAB8qFdbNgQ7F05XZxzzjmBGB+ix6VFDJFFiqbW6dzwV0GnSnFRqGRfYYuVZguONAsWXe9JrfAfraI7moVoPPzz1rkhWsDVuX6ZCNQrDdIMnu10iqFlfxV/XW/kCZBBFCr5YLxYOWB5k0WGqULDeyz/4yfRkA/+Zdpsy7ZOsX7ZBiPnPmn3qpXOTtEui5S/LhPr27NXqPiXLS1c0803Waic/t+n+26h+ZtuntVqaep2QO54j6DeDxlOPW6qyuzz1eNr/2DbwJ53q6zS08++U2XVfWfLIJXF7/nvPa+ycK699lqVlQTPb4HGtAT2N0x9PtpymbrzWyqrrt4666m27gY9/vjjKitL54cMu2oZeroYH/oHfzrFBqcQ6bpnR56tNt2Tvvk99dRTKiu76KKLVFZdn8FXqSycJD9/bPXXK/7qFiae4HWTwr4vG5Hksow6jx7Z+ojK9OL8IUOKFZ+sFCvbr9musvCuv/56lVGsmOIvVqIWKlK1YqWRD8I8FCt59OSTT6qs7OKLL1ZZdVGLFb+iFi7+DW8chUqcBUo1cS/LLBUr5sesyGm1MOJe0dzH1zxvHDHgqgFOEo3/qBVZnxLNh3+easek1Iip7U6hEliuch1K4wMR+XJwPQqsX7kPybl0N8C/djbAwX9vMNJ8X8a+LCXd7dUiRYUYYPvVQcmsaEk9j6Q7tX6t8DvqqKNUhkaZnodJrTu6oisdfcX4c04X44d2PcQYZiT5eWSLv35MFSqG2DIPi7gsg3JfrCS9kG1dqfxHrcjQHdlChA//vDxt1y5t70nNgKNF9B0yXpx+zjni9NPHi6F9KVvQHJOFCuxSiJ6VPBr+3eHaw5SrxZlnnqn+Emmbuvu7KivhW5Mc/9NXDBkvz69yeumEbjmpW9LuyWLdapxt867oy5JipUD8Yyx0H6JE+PDPS23PSa1ADeWz0J5T4N6W2bOiD6KHnViWZlCsZNi+666LFH69evVSGaKyad7JD8JmPwx1xVj8sUOsX9YuT4dS3cHeFnn6/KGibw/d49gdzTCxbJEOb9l5y49l2TyKlRCsXcl039prxJSnn67oEdB9uBL1wz8P5TzVzeua4VPkrt3OHUvFww/fK+59+GGxbINTuKjbdVr6DhHjp50rzp02TUzoJ8+lUhzNfv6wKyi6uOYZy7JxuS5W0lqwST3v1Bd+oLLG9O7dW2UIq9l51uwyy6XOTrFjnVO43HuvU7wsExtqnXG2pUX0HT9NTDv3XDFt2gTRLy+DWwDURM+KIive8ePHq2tdWdu78sYbkeLkTZsqjmTp27ev82Vff8QLURlyXvnnnZyXunlcMwyydp1sQmfnDrFu6cPiXlm4LNsgatctfcX4adPEuedOExOG9ct1b0sel3Ve1VtWLMvGGC9WDljUorhzTu0TrdX79yD/dMTZkC3+ZSdbM6Kuk1nTuWOdWPqw7pT6QaVDoL3elmH98le2NLus/etcXpvJ19kM09uSIP90NtuiPl6act2z8u3Nx6ssvGDvSq3elmoaed5GndbxQ/24iBoxad06d7yFFwMGDNCOzSDKIeeRf57Jeaibt7XCXVZoUqdob6/+2z+lQ6BLvS3TJvRL/RBo3boEIDp2A2nIAsULKe/fYJGeJAvbfOgUO5c+XBrf4u4mqlq2uIdAT3MH5Wa7t6XZzx/Wsejimmcsy8ZRrPjIFckL/3Xbnbb3x9pv8rVi4urVFT0FAwcO1H4LJA6488Y/r+S8083TWuEuoxhEXUd1ry+rSruJ5PiWOkcTHextOVdMmzBMZKVuycrnD7rylp23/FiWzaNYqaKIK9Zxxx2nMniYJ1kQ/mii0iHQE0Q/dd1WbNjyg2VpBsVKTpz20n9qv9HXipNWrKg4ukXGoEGDnH/SHw1TtJDzIjh/5Dxz/jFSuMumBrrpzfEfTXSvU7jIHpdaRxTFLe2eLNatxtk274q+LHNfrCS9gLO2Qo1/6imVoR7mVba0tLaIPn1aBL+PCGRfIXpWkiog0i5UTnvlp/pze9SJ8UuXHhyPIWPIkCHab4RFCjkP/PNEziPdvKsX7jIJoejfmoxp6SeGTVDjU8YPcQqV4lYqrFPNs2UesixjKFacj3or27c2xzv2QD6+//nSaqYMHTpUZcVj8rX7l029JtehuNfTfGoR/YZNUEf+jBdDqnaldIr2DcvEw/cuFTvULXnkrUf+dasITfJfN9XSfF/GvSwl//V6LU2MWcmZU1//mXbcRL0Yt2hRRU+CjGHDhml7HfIc8jUH54OcN7p5Vi/cZdEA7wMqrQ/IrGjpN0xMUGewHT+kb9VzqnR2totl6qihpet2VD9qKMNYZ+KX1DxO6nmyppvzAR2pXOp2TTeV6Z068FSV2enrg7aqzBwbV6rHDvmkyqJ5avJklZWtXbtWZfk2fPhwlZWNXbhQZdGcuv8XKkvGzyf9XGW1Pfrooyor27zZ5h9H6ydOOm+C6KuuOaWHaG+XR/XU+zHDTtHZvl4sWZJucbJs2TKVlb33ve9VWXW/6vYrlSGsRz/2qDjt16epawgj6jx77OnHVKZ34Or4el/M96zIabU4vrXJqVidMOHgY2meJ/XQfNMPE2MXLOhyBMzIkSOdf9IfMZOXkK8x+LrlvHD+sbHQLZM4ozBaRN9ahUpnu9iwdL645575Yn7KhUpTdMuYqB2S7naieki626tFigq7G6jZgsVUwROXUw/8UmXRjX6sa/U8atQoN/Km2uvSzYOwmpn38GnpJ4afNNTXq1JdZ/tSMX/+PeKe+UvE2h32lCj+XYxe1PMrpwGoVOgxK40WHLYXKh53o6n71h8iRj/yiAiO3ZAxevRo7QdwFkO+Fu1rdF67bp6EibQKlU8t/JTKsq5F9Bt+kph+3nnivOkTagyWdXR2ival88X8e+4p9aLkcTAKAJf5MSvH2j1mJYyvDy6Pa8lKYVLLYweuVFl0K08/XWWVli9frrJsGjNmjMoqjfrrX1UW3andrlWZvS5/9XKVlW3ZskVl6WnpN1wMG9on1KHGne0bxPp1a4VFHShVLZWHvAe8+L4XVQaTHr3yUXHatYxZiSLqPHtsW57GrOSALFC8yAVND0DYGDV/fkWvgxdjx451w99TkYXwplv3muRr1c2D0IFonMKk30nT3V6U6RPqnRNFHna8VPWiZKNQAWAOxUoBnHrof6usMSfOm+eGzrhx49ywXa3prPX6wmp2HhdPP3HS9OliQp2jeuRhx0udIlIOmF2yNnsDZnUFM4DojBcrztuRZmE75dBfa8+wGiVOnDu3yxEzXkyYMMEN3ZE2aYY3XbppliFfk+61Rgk5b/3z2uaWDfKw49KA2fnzl4gdORuM4l8eNHONeRu9RZ1naaJnpUBOOeJ/VNa4EQ88oDK9iRMnupG2MNNR77WEYWKeQgkedsyuHgAKxUrBuBvX/ZrxFhFixJ//7IZu3IcXkyZNOhi6rvA4wv+cumnywpt+3WuLEhQqZsgBs0stPOwYgD0oVgrolCN/p7LmDL//fjfqmTx58sEwLcpjh53eMEzNw+Lq8B12zIBZALUZP3T5lGNPURls9/i+D6vMjHXnnaeyxi2QZ431mTJlisoaN8zZIJp0SvfrVJY9H3n1Iyors+HQ5bxasmSJyspefD+HLsfhsSsfE6dem/1TZyQp6jx7fNvjKtOL89BlipWCM12wSCaKFhNMFymSzYXKLybX/z2iR+QJ7wIoVuKjK1be//73q0zvl05DdBQr0WWpWGE3UMG5G1/NeIxmYthdd1WE7iicOCL4vLppayayXqhkgjz3ijyD7fTzxHnnTRfD658jTkOepv8kMbxfvR87jJ/8LhgMANFRrECc0nK9G3EZcscdB8O0OB/bE/f8gVQ6Qdx58twrQ/rKmsW9rUer+4/R9OsrhvR1YoI84ZwTJ/VLvWiJ4hNOA1CJ3UCo8PiLtbuo47bx4otVVnLCrbeqLB2nvOVGldktbM/KXzU/J5D6bqCW/mLixAlC+zNA7UvF3Yvb1JVw+k98p5gQ/PVDeXK5xYtFW8IDeXW7gT7wgQ+orDp2BUXHbqDo2A2EzEp74yyLE3+kKSuFSrY5hcoZVQoVqSXqrhzn/ro/aOkrJpwx0Xk2AFlEzwqqevz596qsWE55280qS983Bj+tstoG9rxbZbXZ1rOi7QWRvwO0fr1Yu7atsdPrO9VK//7DxdC+3u4knwZ6apqxePFilZVdcsklKquuz+CrVBbONzcNVFlxJdmzEvZ92Ygkl2WWelaMFytTBjR/qCnssuCF96ks36a89SaVpeufT9imsvAyWay0DBdnnDG0suekc71Yunitod01TtEy8YxAMdQp1s+bJ9YmtDsoqWLF7183HquyYnn844+LU34V35flRt6XzYp7WUadZwu2V55aIojdQEiVuxHXHB2Tp7ChUJEfhml8IKalpX/fwC6edrF0nqlCReoUbYvnifUVj9cihg7P986goq1HcUtzfrIsyyhWEMqUo29xI29seV3F+0BqEf0DA1U61zuFisprc/7WKTj693dCjmnRjVE5qFOsXd+uckX+jUrzjI1c82yZhyxLihVEdHDjrumdyFLYUqQU11GBIqNTtEfoUmnpW/o17QlnnCHOqDdwdk9n5dgX54mPUimAbKBYQUOm9LrVjayxcbr51iQ5BUXoWiXKfR3OnaPcPU9Ytxpn27wr+rKkWEFTvI3/wSLgjTesii7Thxyqtysoe2bP2q4yZB3L0gyKFRg1pc/tByMtNkxDUuQHYTY/DPcEekeaKThaRN/+Nf64f19ReUBQp/PsyZAHWwYjrOwuW3jLzlt+LMvmUawgNhVFg2bciMmoeK4MKW7XbnBXTp2Co0J/0TdwbpaWvv2rDprtH7hzZ3uD529JSbMbOXYFRRfXPGNZNo5iBYmY0u/OUBGku48uEE4z3/RNa2uvPEqnZejwUGeYbRk+tLKnRGoZKiZqfvWwpf/ELudZiTKQF4AdjBcrzscfjdZwO7nfHRXh/7c8tmZkvlu5rV1UlivylPjDq/aQuFqGi4lDy/fo9BU8LUPPEO88Y6IY7h7W7NxPHikUPD1u+/rETghnUrPL2r/O5bWZfJ3NqLesbFqWUR8vTfSsABl155wBKmuOrrclmdguFi0JngNlqDhjulNw9GsJ3LfFqVMmiukVZ7ztEO1rF4mKh2jpK4YOlYc1DxV9uwyC6RDr124PPG7y0QhTyxrxq7esWJaNoVgBkJ62QLEhtToFx0lniPPPP1+c4Z5H5Xwndy6H9hWt6i6u9vViTYd8iCWi3bmszSlU5s1z7w8geyhWgBT9n418y2pbNM8pWPRVRGtrqxPqil/HejFvkXe+2zaxyClEqj1Gh1PULMlwodLsN3HWsejimmcsy8ZRrAAZJj/8st+t3OEWLPPWtztZfbL4mDdvTeC+pce46667nH9bIpYsccIpUNzri9aItgwWKvlYtsXkLTtv+bEsm0exAsAKHWsWiXl3OUXLkvWivSNYXXSoHpJS8VGr9ujoaBNtbU50eYzsYMOWHyxLMyhWgJTRTe/nFCVta9zdOrJXpBxOEZPRHpI0sW41zrZ5V/RlSbECAACsZrxYOUCj0SK3azaGOR0assbUocuNkOuUXLeK0iT/dRPNlvdlXMtS8l+v19JEzwpgCfmBVJyipb+YdMYZYtKkSWJEf93hPk3QHj5UHMVaj+KX5vxkWZZRrACW8T6g4viQSvObfhdOUdG3r3dOFadwGdG/8jwqjWgd4Z6bRZ6j5XxZDDmFUBFKlzjXGZQkNY+Tep6s6eZ8WEX6tOp2TTeV6U3uP1llAJLyqym/Ullt8+fPV1nZ1q1bVZak/mLS+Sd1/Y2fjnaxZMmihgfSto6QJ48Llicdon3JErEohdG5CxcuVFnZhz/8YZVV9/P9P1cZwnriE0+Ik395srqGMKLOs4VtXddnvwNXx/flh54VAPZo7StOUj0ijWht0f1dq+h7klPEjEi+j8Xfg+UFgOgoVgBYplRcRC9Y5P3bNedoKWkdKh9TXQGQKRQrACzgFBmB0+WXChZ1JRR5FttF6hwt88SS9V2Llr5DR1g/hoVdQEBXFCtADnx8wcdVll073FPudy1YGtt74xQua5yiJfgria1DxXB6V4DMYYAtUCAfeeUjKivbsmWLypLUX0yePdE3wLZdLL5zoZA/Tdg6YoaYMcxfoZT/rRH9J88WE/0jedsXizsXNvpo0egG2HZ+qFNlMIkBttExwBYAGtSx5iGxuKJDpK+YOKPx3TdtbYHelR7FOJwZyBOKFQDWaVv4kFjn3yPUOkzMmNzg/pu2NlFRrrQmV6z4jwLyAkB07AZC6q7u94TKhFi7ViWWa2vbobKSh0ZcqDK7ZWE30EGtI8SMGcMqCouOdQ+Jh9boj/apLsRzxeSJJ8rrtmfvh/eqDCaxGyi6Qu8Gcr470GihmixS/IVKls1Yc7sb/tdnY8uUjjXiocr9QaJ12AznC5G6klH+5UEz15i30VvUeZYmdgMhFf/Sr3aFbjt/t74/Zqy+Xd3DTrpptprzTe6hiv1BQvSdOCPaEUKtraKHSl0dHSJq3wyAdFGsIHFZL1Tqsb1gyZquA25bxbAZ4QuW1v59K8eo7KVYAbLG+JiVSf0nqQzQu7pv9WJl7VrLv+krbW3bVab30MiLVJaca6dcq7Lq5s2bp7KytH4bKNo4klYxwilQKo5olr/5s/ghUfso5ODzNDrupTELFixQWdnll1+uMr2f7f+ZyhDFwk8sFJN/yZjJKKLOs0Vti1Smx6HLAGoKU6hkW4dY81DgCCGngOk7cbZ7lJC2k6XVKVRmVBYqboGTwg8aAmgOxQoSVatXJUv8Yz50ccaqW9U9YY6uYHFqkr4TxYzZM5yiZYTo37+/EyPEiMkzxGxZqASqmI51i0VCnSoN+/Qhn1YZAA/FCoAMKRUsiwO/IyR7WVr7DhMTJ050YpgYFqxSpI51YrHtlQoALYoVJOrAgdqRFbrelGAgLh3uSeMeWtfuZCE5hcpDD60Jf38AVqFYAZBJHWsWOgWIrpfFrzQI904KFSDTjB8NNLH/RJVhkTjU+f9+52u4E5IzqycdUuz68Oo+tUeTr12r5pXltm+vfwTNvFHvUVnjrhkS+F2bKgb2vFtltemOBkrnDLatYuTkEaJFXROiU6xZuLqpgqK1tVUcddRR6poQe/Zsl6dUSZXuaKCPfKTrWYSD+gy+SmXhXL2hchhxES36xCIx6ZfJHI0a9n3ZiCSXZdR5trhtscr04jwaiGLFgEWHHukrSMqFSUllsVK6DN53v5h0uPMYBUCxUl8jH4TZK1aKIalixa+ohUvcxUqcBUo1cS/LLBUr5r/my2ktQCw6rHspZKFiwKLXXhaLXt3nhu758hKyXqsVWSFr/Hqhe/21Qn4YpvGBiHw5uB5p1rFch6S7vclI830Z+7KUdLdXixQxZiWiRUe0uBGnRa/udQPFcc3QZD4MtUUVcimpdSrPbJmHLEuKldAWvanVjSQteqXDDdhHt9EPBgDADIqVGhYd+TYn3uJGmha98mIpXn5e3YI84VtTWWvrADFy8kwx84ILxAUV4dw2eYD8TcJMSbuIZd1qnG3zrujLkmJFY9Gbe7qFio1kwbLopefUteyRn9W1o+uHu43hDpyuGwjNKVImz7xAzJw5UQzr16o5fb5zW7+Jzr879xmpq1icfx8w2f33igJn5mQxIGsVjmP2rNq/PYXsYFmaQbHis6h7L7dQyQJZsCzat1tdQ1HJD8LMfxi2jnSLFKdGCaV1mFOEVBQsstBxbpvYL9Dz4hQwrf3ERPlvk0dqCiC75WLZFpS37Lzlx7JsnvFixfnembm2qEdvt1DJIlmwLNq7y/dq7G55oett6RIhGt30stAYVqWQ6BAdHTLUVR9ZsEwe4GZiZIhCp7XfMKcgyl7BIjW7kZPrmH+dy2uT/NebaXG9L21blpL/er2WpkL3rCxu6ScW9+ijrmXb4r3PiMWdO9U1IBsGTHYKDZV7OnasE4sfvEPccceD4sEHZZTyxTsqq5Z+w5ziY8AIMaxLBaIvcJwKxx33AiB7ClmsLG4d4BYqeSQLlsUd9n5bP+AU57UiK7Q9KYGIW+a7lVtHimGBt2HHOqc4WbhabO9SbHSI7Qudf/P/5LIsPib6HkD+UOHBIse5fHBxl19odiocoR3yYjl2IWRHvWXFsmxM4YoVWagUgc0FC8y4c0621+XWAX0rd8s4xcai1boukbKO1Yu6FiCuHU6hEihyOraL1U7BskNdLWkVfQckV62YKmKzvqyLpN6yYlk2plDFyuKjjlVZMSze06ay7NB9uNsY+qN/goHqWsWAvpVFw451YX4bqEOsXldZfkgd69YI/ffV7WJNoLpp7Tsgk2NXgCIrRLGy+C3HFa5Q8ciCZfGebeoabHPV+nyMmYruKNFS2a0iOveotJ49nYGipkO0d91vdFDH9vbK+7e2OM+eHc1+Ey/uOta4uOYZy7JxuS1WFr9lkIrj1C3FJguWxS9udSNNslOiVmSFrrclGEmQH35RPgDTms76nAKkfrdKiXPHTpWW1PnbLvfPhqjLFvbwlp23/FiWzctdsbL4rSe4geoWv7DFDQB2YsOWHyxLM3JTrCx+2xA3EN7i5ze5geh0PRTBCCvtrl3dtMcfewK9IS2ipVV3P020OvdVf1VS52+D93eeeI/ufglFktgF1Djb5l3Rl2Xmi5XFRw9zA41b/NwGN4DkOMVKxb6ZVtGvf7iRJEf17xcYIFv7b7vcv9MpVlQKIBsyWaws7nWiWNxzhBswZ/Gz60qxe626xTz5xbJ26L+N2hb6o3+CEV4RvzXJs9P6tQ4fIep3mA8QI4Z3PZbH/VtdvXLUSDEpcP/g8+YVvSrNs2UesiwzVKwsPmZUKZxCBfGTBcviZ1a7gWTID6QifSjtadsROKqnn5h08oAaR+ocJUaeOcl3xlv/mWqdv515phjpq1iOGnCyOHPm8EAvzA6xdnW++1WKth7FLc35ybIsM16s6L6FNhOLe49xA+lZ/MxKN3TLJ2rkhe61mYp/Xtf7YOTantVibfCUKf0miZlnniwGHFVZshw1YKQ4+cyZoqKTZMdaMbfiAVrF8EkzxYUXXujGzEnB3UXOnyx6osr5WLLNv87o1qkihKS73VT453Gc/M+jmw6TIelurxZp6uZMQKQp6HZNN5XpTeg7QWXNWdJnvMpUd/oB71JN7sHrdf498b8P3E/+faN/6123bB6cdMxo97IR3+i1RGV669e/pjK7bdlSv8fp0fGXqyx+vzn1NyqrTf7WTtDWrWkezi57SwJFSCg7xKLbS4XHgJMvFE5dUlfH2gfF3IR7VR577DGVlX3sYx9TWXU/ef0nKkNYSz65RJz0i5PUNYQRdZ4tbV+qMr0DV6ttRwys2w20pO9JbsBeS3Y95UYjZB1UK7LC/22jWiCMPWL13EUi8BuFdXRU9JBsf+JBsbbmA8j7J1+oSKwXgBlWFStL+k1SGbJgyc4nVQY0Y7t4Yu6DYlGYiqVjh1j74FzxRMW+HKfgeWKuePDBRW7RIgfQlsK579pF4sHb5f2zM06FXhWgK2uKFQqVbDJdsOi+idoYpV1j9SI5H33soyrLqj1iu1Nw3H67U7Ss3SF2HCw4VOxYKxY9+KC4fe4ToloHyZ49292iZe5cL5z7rt7OYcpADlgxZmVJ/8nlfQDB8RPeh3618RRdLgP/nvjfB+4n/77Rv/WuWzcPut7vpJDL/es9641ZeVVldtuyZaXKqntswhUqs8dHXvqIysqefvpplcG0Rx99VGVlL33kJZXBJMasRMeYlQjcQgWZt6TOSuyR9U2tyAp/L0u1AACYYd0AWwDIC4pYwAzjxYrzdozUkB/+5Vqt5YVuI9QlLGxIn3950Mw15m30FnWepcn4mJXxfb3zo9R3z7plYr96dm8qvOsHL0sX9e9X7d9LF4n9fZf7yQjeVuey2WmI+++r3e/WS+ov+68fXXt30YYN2RizsmnTcpVV9/jE+ufTSNpHX+o6EDfd86zkm3bMykcZsxKHpZ9cKib8wsx5vooi6jxb1r5MZXpxjllJtViR7lpbevFVN6Cli6obyOBlvQ1t3H/f5X4ygrfVuWx2GuL++2r3C1OsfO1t9YqVV1Rmt82b659n5vGJH1eZPewpVo4SJ04Z2eUMs8noEKsXrErkKCGKleRQrESXpWKFMSsAUtAqWvv1E/1SCee51VQAyAaKFaAB7piUOgEAMCP13UCS3BXkTUVwV4Ntu0Dq/X2X+8kI3lbnstlpiPvvdfcLswtIystuoE2b6p8Mb8GkT6gsGf9z6v+orDp5srSgdHYDDRBT3jXZ9wvKSdohFv5pQSI/aPjII4+orOwTn6i9Xvzn6/+pMkTBbqDo2A0U0fnDoxc4sEfYQkWSBU6tyAp/D0q1SFKYQsUu8qy0O8SO0OHcX/1lSZS/D/4tgKyxZjfQ7BEULFl0ywdYblmSdlFVtkesWrBALAgda0Sn+suSTrFGez9dBP/Wbp897LMqA+CxaswKBUu2xFGoyG1nFsL5f4gAAJhgvFhxvqs11S4YOc4N2Oum949zw7/cwrYi8b/uuBvyxb9saeEa8y16izrP0mR8gO24vmYLjVtXlQYyVh38Gbjs8u+li8T+vsv9ZARvq3PZ7DTE9ffXv7f5ZfvVt9QeoLVx48sqs9vGjbV/kFF64uRPqaxx3xq2W2W1Dex5t8pqmzNnjsrKsvFDhsEBuVEGyTbzt83561//qrKyv/mbv1FZdX0GX6WycL6+rpfKimvZJ5eJ8b9Ipnc+7PuyEUkuy6jz7Mn22gcWFPo8KxefOM4NpEcWKSYKFYQjPwi9AMJgnYlfUvM4qefJGvPFiiysYoj3OAWLjPeOYqOZhN+9e5y47j2l0C2PhiMn/ANUq4X29dcIPqBgwsH1SLOO5Tok3e1NRprvy9iXpaS7vVqkyPqeFR1ZsLx/dClgzm8vHueGLFSQrG8Np0iBWaxTzbNlHrIsM1qs+F0yZpwbaNxvLhrnRhLcDocchPP/EAEAMCHzxYrnQ2PHuYHwfv2ucW4gXXxrQlxYtxpn27wr+rLMTbHi+fC4cW6gul9dOM4NO+l6KOyLAwf2142s0I23sS/2iD0Vp6FtEa2tuvvporTUyuQNuvslE2HMnpXEsUpIAsvSjNwVK57Lxo9z4yNOQIhfzB4nfnlBKZAf8oOwmB+GraL1KJXWc1TgV5Y7OsQeldqsuMs2+7xl5y0/lmXzclus+MmC5YoJxdxI/8wpUmShYgv5xbJWZIXuG3Mwwki6a7fR6UzfHlljVOjf/1iV1XbUgP6ZLFY8zW7k2BUUXVzzjGXZuEIUK56iFSyyUAHyYltbm8qU/iPEiXV7V44VI0dUlCpOrZKlUgWAZLxYcb6rWd2uOGmsmtJ8+8n5Y32v2p5Wj/yin4Vw/l83wrRmFK5beVubqCxXWsWIWWeJE4+tUrEcdayYctZk0V9dLekQbduzV6w0u6z961xem8nX2Yx6y8qmZRn18dJUqJ4VjyxYrpyYz6LlP9851i1UkH93zhmgsqLYJlavCewLkgXL5FniorPOElOmTDkYZ511kbhollOoVHaqCNG2RqxKsFYxtduteMs6u+otK5ZlYwpZrHhkwfKJSfnYsP/4vLFuoWI7+VldK5z/ZyJ0R/8EA+btWfWE6FKvSK2ton///gfDuarRJhYu2KZyAFlS6GLFIwuWT07OZtHyw3PHuoUKsulra3uqDOHsEasemKMvWGrqEGvmLBBZLFWa/SbOOhZdXPOMZdk4ihUfWbB86uRsbPh/cM5Yt1BBOnTd+8FIgvzwK163sixYbhNzFrY5JUg9HaKjbaGYc9sDie7+MaGYyzYfvGXnLT+WZfMoVjRkwfK3U+wsBL7/jrFuoQIU3Z5tC8QDt90mbpuzUCxc0yba2vyxRixcOEfc5hQpDyzYlqlDlSU2bPnBsjSDYqUGWbB8RkWa/v3ssW7IQiXrZIdDHsL5f4gIh276Ju3ZJratWiAWLPDHKrFtG4cos241zrZ5V/RlSbES0udOGetGkv7NKVBkAMimtHYPAnlDsRLR508d60acvv32sW4UU7B3ws7QHf0TjCj4BgzTWKeaZ8s8ZFnGUKw4H+OFaH9/2hg3vjB1jHrlzfk/s8aIb55VCv/z5K0Vif91h2lfXXu0G3HSfdMn4os0eOuRMwWFapL/uqmWxPuymriXpeS/Xq+lqZvzhoo0Bd2u6aYyvTF9zGy88+C785cL+f16v5rDck5/Y0ax588/9nhKZXqbN+9Vmd3Wrv2ryqpbevoXVda47wx/TmW1Dex5t8pq+8tf/qKysqefflplMO3hhx9WWdmnP/1plVXXZ/BVKgsnrY2pTZ761FNi7M+T6ZEO+75sRJLLMuo8W75zucr0DlwdX0FDsYJEUazE4/en/V5ltVGsJKvRYuVHr/1IZQgryWIlL7JUrJgfsyKnlSCqRR2ydM5COP+vH5qbYgtYSX4XDEYoweVL1A9JdztRPSTd7dUiRQywBQAAVqNYQaLkF8ta4fw/E6E7+icYQCN+9Cq7gIAgihUgBy595FKVAUD+mB9g25sBtqjuy3UG2G7a1Kkyu61dO09l1T057Z9UZo+P7vuoysoYYBuf+fPnq6zs1Y+/qjKY9NSnnxJjf8YA2yiizrPlu3I0wPYAjVajFYn/ddvSkD7/8qCZa8zb6C3qPEsTu4GQqOAYlWBkh5zYeoGi8x8F5AWA6ChWAACA1ShWgALhmz6ALKJYgWX8u1HsDd2hysEAAJhBsQIAMaEnCzDD+KHLo3uPVhnQ1ZfeXPvQty1bOlRmtzVr5qqsuienf01lybhu6nUqq+7Pf/6zysq2bdumMpj20EMPqazsM5/5jMr0fvjqD1WGKJZ/erkY8zNOnRFF1Hm2YtcKlell67eBACQuTKECAFlFsQKryH6+bETX7v1gZIVu2gkz0Yh/OOIfVAbAY7xYcd6iNFrVViT+1x13Q774ly0tXGO+RW9R51ma6FlBouSXzVrh/D8ToTv6JxgAADOMD7Ad1XuUyoCuvnRk7QFaW7bsUZndVq9+QGXVPTXjGypr3HdHvKCy2gb2vFtltekG2PLbQPGZN6/rb0jVG2Ar9Rl8lcrC+ac1b1VZca349Aox+mcc4BFF1Hm2ctdKlenFOcCWYiVmKw7r7ixB9S1bXY7eX9wfMqtXrGzenI1iZc2av6isuqdm/LPKoglboPhRrNhJdzTQZz/7WZVVF7VY8Stq4SI3vIiOYqVgVrzpLaXkYGGiZqu8HihWKv7Ndzm6W3wL2hYUK9U1UqR4KFbslEax4qG3BaalWawwZqUJK47s6cTb3DBhhVPEuLH/DXVL/sg6rVZkhazx60UUzRQqUTQ7nciOpNYpIAnmixX52ZfzWPHmY9xCJU6yYFnxxuva5890FInu9VcLIA66dY0gGo0U0bMSwYoevcWK7seoa8lYsf91p2gp0hgX3TvEvtAd/ROMsL47km/AeZV2TxbrFvKCYiWEFS193UIlTbJgWfH6y+oagDybPWu7ygBIFCs1rGjt7xYqNpEFy4rX9qlr2SO/WOYhnP+HiPjJjRobtnxi2QJlFCsaK4461i1UbCYLlhWvdqpryCq66VFPswUL6xjywHixciDDbcVbjnMLlSyRBcuKVzp8r8Lulhe6sQhdIkQDkuBf52i0Rlua6FlxrHzrILHyLcera9m08pVOsfLlbJyjBGaY2kWgLbQII2EKu4NQdIUuVla+7QS3UMkTWbCsfNnebl/5+V0rnP9nInRH/wQjbnfOGaAy5B3LGkVX2GJFFip5ZnPBAhRFnL0tQJEUslhZ+bahKsu3lS89p7LskJ/lWQjn/yGivn9crX6mAaii2V4V1jHkQWGKlZVHDy9FQQoVjyxYVu571g3kj9yQRdmY8U0/O6IuWyDPcl+srOw5wg0482LvM26kSW4ba0VW6Db6wQAaRZECVMptsbKy14luoKuVnTvdgB3ops+vtItY1i3kRe6KlZXHjHYD9a3s2OGGXeSHuf2hO/onGAAAM4wXK87HeOJtZZ/xYmXvsW4gupV7tpfixW2+uRpPKxL/667Xvrz6KPVXgBlynfKvYzRasy1Nme5ZWdX3JLGqzwR1DSasenG7WPXC0+qaebIXPA/h/D9ERCM3LhQtaBbrEfIoc8XKqn6TSuEUKoiPLFhWPb/FDSTL29iwwUFYrDPIu24HIo746nZNN5Xpjew1UmVmrRpwcinxxgIcvFST3+X2OvcTdf696mW9x9Hcr9a/+S9jm6YGH8e7VI934lsHu5fN+IfDV6lMb+vW51VmtxUrbldZdavf/m8qi98fp/1RZbXdd999Kivbtm2bymDa3LlzVVb293//9yqr7vsvf19lgD1W716tMr0DV6ttSAys71lZNeAUN5C+Vc9vcAMAgCRZW6ysOvY0N2CfVc+td6MRsvOmVjj/z0Tojv4JBuA/ZNkLANFZWaysGjhVZbDZqmfXqgyAKewCArqyrlihUMkW0wWL/OKZhXD+HyKSc8nDl6isNt03fSK+AGCGVQNsVx03zfk0rTLYM8xA1pqX9R7P1ONo7lfr3/yXsU1Tg4/jXYZ4vBNDLve/P6zeANts/PjiihW3qay6NWd/T2X2+GjnR1VWxgDb+OgG2L7x6TdUBmRLrgbYOt8nGmpuoYLMWuWsxP7lWbU563KtyAr/t+eqYWFDsrKyXtBoYVqarD8aCAAAFBvFCiwjq3f7Q/uNORAAADOMj1kZ0WuEysKbu2mN2K+mwrv0purg7aWL+verclnv8Uw9ju5+tf6t4rJ0Uf9+gct609Tw43iXpYu697v+vfWX/d8fWnuf59NPP6syuz311K0qq27tOfYd1XFF5xUqK2PMSnzmzJmjsrI3/pYxK8imNbvXqEwv9yeFO3Nw9AIH2SQLnTxEqYSrFwAAE9gNBAAArGbFbiDpgY2l7qWquxpKF112PXS5X5XLeo9n6nF096v1bxWXpYv69wtc1pumhh/Huyxd1L1fmN1Anz8kL7uBblZZdevO/aHKknHDtBtUVt29996rsjJ2A8VHtxvoC1/4gsr0vveyfYe8A1LhdwNJZ53ArqAsC1OoID5hChUkT34XDAaA6KzaDUTBkk1RChX5WV0rskK3EQoG0IgvH/lllQHwWDdm5ewhFCxZct17WF5ZQlEFIIusHGBLwZINcRQquo2pjVEayVMvAAAmGC9WnI9yI+3socPdgH1+++7hbviXV9hWJP7XHXdrhq4YI+KLMJx70mjWtTQZPxpoeK94Cox71pV+3Td4BIo39cHb696vdFH936tc1nsc3f1q/VvFZemi/v0Cl/WmqeHH8S5LF+K/L2p+2X5O1B5Nvm3bbpXZ7ckn6w9oXf/O/1BZ435wYqfKahvY826V1XbPPfeorIyjgeLzwAMPqKzsS1/6ksqq6zP4KpWF88VVLSoD4rN2d+1f2S/E0UD1nDdsuBtInixSTBQqCEcWKF4AYbDOIO/MFyuysIoxzncKFhkXDGfjGadfXjhcXPuuUuiWQ8ORE/5u/Wqhff01go0NTDi4HmnWMYJoKlKUmZ4VHVmwXDiCosWkX1ww3C1UkKwfjKJIgVmsU8iTTBcrHlmwXDSyFIju57OHuyELlbi5HQ41Q99LYVuURvLUCwCACbkoVvzefeJwN1Dff50/3A2ki2/AiAvrFvIid8WK572jhruBrn7yzuFuoHG63pZgAI2uF7NnbVcZACm3xYrn/aOHuwEh/uO84W4gP+RGjQ1bPrFsgTLjxYrz3cHK9v4xw9y4ZOwwNaXF8H/PGSZ+eG4p/PMjtXZwbIo+skL3jblLhGhJd9PrphN2a7ZgkeuYXNdotGZbmnLfs6JTlIJFFioAAGRdIYsV6UM5L1i+/45svj7dN38bQ3/0TzDixS4C++nXnehY1ii6whYrkixYLh2Xr6Ll350iJauFCqK5c84AlSHvWNYoukIXKx5ZsFw2Ptsb+H87e5hbqNhOfrGsFVmh+8YcDACAGRQrPrJg+ciEbBUt33n7MLdQQTZ9YWUPlQF6zfaqsI4hDyhWNGTBcsVJdhcA3zprmFuoIB26npRgJEFuyNhFkE8sW6CMYqUGWbBcOdGuguBfZw1zCxXAFF2hRZiJRlGkAJWMFyvOWzR37WMTh4qPTxqqXmE6/uXMoeL/zBrqm6qMNjU2pXrI+9gf+qN/KsO5Z6j2Dyu7O/cHzJPrln9do9GaaWmiZyUCWbB8YnKyRctVM4e6hQqA7NEXugCiolhpgCxYPnlyvAXEP88Y6hYqsJNuIxSMKOhdgWmsU8gTipUmyILl0ypM+PoZQ92QhQqKR25c4t7ANFtUwX5JrEdA0ro5H1aRPq26XdNNZXpDe7Kh9fvRo+vFfjWHvcsvnV7cefR3r69TmV5b206V2W3x4v9WWXVbLrpWZY374ah9KqttYM+7VVbbXXfdpbKy7ds5O2pc/vznP6us7J/+6Z9UVl2fwVepLByKEyRh/bPrVaZ34Or4vvxQrCBRFCvxuHn6zSqrjWIlWffff7/Kyr7yla+orLp/e+nfVAbYI81ixfxuIDmtBFEt6pC1cxYieOSPNoKvPc5AvuiWMUGkHSlizAoAALAaxQoS9dNDhwnZMVEtskLX2+KPLe+qv5sI0Pm3fewCAoIoVoAceO+896oMAPLH/ADboxlgi9r+tsYg27a2dpXZbdGiX6lM7+mL/0dldrmi4wqVlTHANj66Abbic+oSyJj1z+VpgC1Qx38dlu/fNrK1UAGArDJerByg0UK0nx42VMg+va7h/GsGQnv0jxNbL/6N71Xa15As3bpDo2W1pYmeFaTmvw4f6kYebL34t24AAMwzPmZlyNFDVAbANlfsYcxKkrRjVj6vLoGM2fDcBpXpMWYFAAAUFsUKAMSkYqyKCgDRsRsIyIlbzrhFZdXdeeedKitjN1B87rvvPpWVfe1rX1OZ3nf2fUdlgF3YDQSgKWEKFQDIKooVALDIV7t/VWUAPMaLFXksNo1GS7YhX/zLlkazpaWJnpWAH49+uUsAABAF2xKzjA+wPeHoE1RmNxMrzudXHKkyIB5h19OBPe9WWW0MsE1WIwNspT6Dr1JZOHwWpadI25KNz21UmV6cA2zNFytvs7dY+fGY+Crbzy/nwwJmNLKeUqzY6d5771VZ2de//nWVVRe1WPHjsyh+Rd2WbHw+vWKlELuB5IoV58olJfEcyDfWIZjAehSfJOYty08v1z0rjSzw2bO6fsu8c84AlYXHtxtE0eyHU9ielTvuuENlZW1tbSqDaWn0rPjxOWQG25KSNHtWclmshF2xdCtTWGFXOj4sEAbFSj5RrGQb25JK7AYyqN7KJVcqL5oR9nGa3Qgh/9JeR+T3FSK5SBKfP41jW2KXXBUrYVauONRb0fjAABBFXJ9VCIdtiX1yc1K4Wgux3gpgSr2VzD+9NJrXmpHUuo3kmVq2/nWNVr+xLane0pSLnpX/GPOKyrpKYsXyq/V8taYTxcQ6gXqa/QxjHQuPbYm9Ml+sVFtockEnvXJ5aj03HxwAYB+2JXbLdLFSa+WyASsZ4mTLeo74sazjxbbEfpktVmxfuTysZIhLI+dsQDaxrOPDtiQbMlmsZGXl8lCwAMWU9qHLqI1tSXbkYoCtZOvK5bF9+pCOzy1/k8oAvWZ7VVjHomFbYqfMFSt5qyDpXUEz5IYsysaMb/rZEXXZIhq2JdmSi56VrFSa9K4ACIMiJR1sS+yVqWJFVzlmbaHpppfelWKjmz6/0u7JYt3SY1uSPbkZswIAAPLJeLHifHeIpeWhEvZUq4j9r5dWrPbZ5UeoNQEwQ65T/nWMVmpsSxpvacpsz0pWVy5P1qcf5smNC0ULmsV6FA3bkmxgNxBgGW9jk9QGRzeugjATSUl6nQGS1s15Q0V6R3W7ppvK9Aa9dZDKzPnPsa+qrCwP1aRuxP9nn+LDBtHdNvM2ldV2++23q6xs+3Z6+eJyzz33qKzsqquuUll13+z8pspgEtuS5mx+YbPK9A5cHV+Bnsmelbx0exWl+w4oKn8vixewB9uS7GA3EAAAsBrFCgBYhF1AQFcUK0AOXPTgRSqrjd0SALIokwNs87R/LjgwigG2iNMVL16hsrK2tjaVwbS7775bZWWHfvFQlSFpbEuak6sBts53NaMtzyuXFHw98vX6Xz+NZrIhWf4erINBS6WxLWm+pYndQAAAwGoUKwAAwGoUKwAAwGoUKwAAwGrWFyufeepwlZXoTiucZcHXE3y9AIDmsS3JNnpWgILTHrFCxBYAoqNYAQAAVjN+Urjj3nqcysz56djXVVaS5xP5/N1Th6kMMO9jL3xM+23fH/v379feHiaa+VsZ9f5e0t0eDFtew2uvveZOs9+hX+akcGlhW9KcrS9sVZkev7oMAAAKK5PFSl4GRuVtgBcAZAnbkuzIRLFSlF0j7AIC8sW/e8gLpIdtSXaxGwgAAFgtEwNspeDAKCnLg6N03Xb0rABAvNiWNC5fA2zltMYQf/dk15mf1f102pVLvj7N6yYIgiDMBduSJiJF7AYCAABWy1SxkoeKuGolDABIBNuS7MlFz0pWVrKsvRkAoEjYltgrc8VK3ipHelUAIHlsS7IlN2NWbK806VUBAPuxLbGT8UOXB75loMri9V/j3lBZJRsPQau2cv3tk/xGCACkiW1JeE+/+LTK9PhtII1qC8e2qpNCBQDsxbYkGzK9G8j2lYxCBQDsx7bEfpndDeRXrRtPSqMrr9YKTqECAHZiW1Ibu4GaVGuhJV0ZU6gAQDaxLbFXbo4GqreSJbGisXIBQLaxLbFTbooVqd5CjGslq7cCU6gAQHawLbFPLsasBNXa7+jXzD7IsCsrhQoAZBPbkkppjlnJZbHiCbui+elWukaqaIoUAMgHtiUluSpWjn3LsSqzx8/G7VdZ/D79ZK72rAEAlKJvS7a9uE1lehQrhsS5olGkAEAxFHVbkq9i5Sh7ixW/n41vfmX79DIKFAAosiJtS7btoVixhm7FoygBAESRx20JxQoAALBamsUKXQYAAMBqFCsAAMBqFCsAAMBqxsesDDgq+klvAACA3bbvqX2mXsasAACAwqJYAQAAVqNYAQAAVqNYAQAAVqNYAQAAVqNYAQAAVqNYAQAAVqNYAQAAVqNYAQAAVqNYAQAAVqNYAQAAVjP+20D9j+qvMgAAkBdte9pUpsdvAwEAgMIy37PSSs8KAAB509ZBzwoAAICW8Z4VAABQPPSsAACAwqJYAQAAVqNYAQAAVqNYAQAAVqNYAQAAVqNYAQAAVqNYAQAAVot8nhUAAIAk0bMCAACsRrECAACsRrECAACsRrECAACsRrECAACsRrECAACsRrECAACsRrECAACsRrECAACsRrECAACsRrECAACsRrECAACsRrECAACsRrECAACsRrECAACsRrECAACsRrECAACsRrECAACsRrECAACsRrECAAAsJsT/B3Ss73m9w9bLAAAAAElFTkSuQmCC;" parent="1" vertex="1">
          <mxGeometry x="298" y="198.25" width="259.15" height="360" as="geometry" />
        </mxCell>
        <mxCell id="hPL-5RzWcmjOVMzAVouO-4" value="A4 | Pin27 | N/A&lt;br style=&quot;font-size: 16px;&quot;&gt;A3 | Pin26 |&amp;nbsp;N/A&lt;br style=&quot;font-size: 16px;&quot;&gt;A2 | Pin25 | No-Frost Led&lt;br style=&quot;font-size: 16px;&quot;&gt;A1 | Pin24 | Button" style="rounded=0;whiteSpace=wrap;html=1;align=left;verticalAlign=top;fontSize=16;fontFamily=Courier New;fontStyle=1;spacingLeft=5;" parent="1" vertex="1">
          <mxGeometry x="559.15" y="288.25" width="260.85" height="90" as="geometry" />
        </mxCell>
        <mxCell id="hPL-5RzWcmjOVMzAVouO-5" value="VCC | Pin20 | 5v Output&lt;br style=&quot;font-size: 16px;&quot;&gt;D12 | Pin18 | Temp Sensors&lt;br style=&quot;font-size: 16px;&quot;&gt;D11 | Pin17 |&amp;nbsp;Relay&lt;br style=&quot;font-size: 16px;&quot;&gt;GND | Pin22&amp;nbsp; | Ground" style="rounded=0;whiteSpace=wrap;html=1;align=left;verticalAlign=top;fontSize=16;fontFamily=Courier New;fontStyle=1;spacingLeft=5;" parent="1" vertex="1">
          <mxGeometry x="559.15" y="387.25" width="260.85" height="90" as="geometry" />
        </mxCell>
        <mxCell id="hPL-5RzWcmjOVMzAVouO-7" value="Ground | Pin8 | GND&lt;br style=&quot;font-size: 16px;&quot;&gt;Serial RX | Pin2 |&amp;nbsp; D0&lt;br style=&quot;font-size: 16px;&quot;&gt;Serial TX | Pin3 |&amp;nbsp; D1&lt;br style=&quot;font-size: 16px;&quot;&gt;5v Output | Pin7 | VCC" style="rounded=0;html=1;align=right;verticalAlign=top;fontSize=16;fontFamily=Courier New;fontStyle=1;spacingLeft=0;spacingRight=5;" parent="1" vertex="1">
          <mxGeometry x="60" y="260.25" width="231.85" height="90" as="geometry" />
        </mxCell>
        <mxCell id="hPL-5RzWcmjOVMzAVouO-8" value="Ground GND&lt;br&gt;VCC Input (5v)" style="rounded=0;html=1;align=left;verticalAlign=top;fontSize=16;fontFamily=Courier New;fontStyle=1;spacingLeft=5;spacingRight=0;rotation=-90;" parent="1" vertex="1">
          <mxGeometry x="316.75" y="100" width="151.36" height="50" as="geometry" />
        </mxCell>
      </root>
    </mxGraphModel>
  </diagram>
</mxfile>
